<?xml version="1.0" encoding="UTF-8"?>
<!DOCTYPE svg PUBLIC "-//W3C//DTD SVG 1.1//EN" "http://www.w3.org/Graphics/SVG/1.1/DTD/svg11.dtd">
<!-- Creator: CorelDRAW 2021 (64 Bit) -->
<svg xmlns="http://www.w3.org/2000/svg" xml:space="preserve" width="45.6267mm" height="11.0416mm" version="1.1" style="shape-rendering:geometricPrecision; text-rendering:geometricPrecision; image-rendering:optimizeQuality; fill-rule:evenodd; clip-rule:evenodd"
viewBox="0 0 2007.72 485.87"
 xmlns:xlink="http://www.w3.org/1999/xlink"
 xmlns:xodm="http://www.corel.com/coreldraw/odm/2003">
 <defs>
  <style type="text/css">
   <![CDATA[
    .fil0 {fill:#FEFEFE;fill-rule:nonzero}
   ]]>
  </style>
 </defs>
 <g id="Camada_x0020_1">
  <metadata id="CorelCorpID_0Corel-Layer"/>
  <path class="fil0" d="M680.12 350.49l-14.39 0 0 37.78 14.39 0c0.81,0 1.36,0.55 1.36,1.36l0 10.17c0,0.81 -0.55,1.36 -1.36,1.36l-43.46 0c-0.81,0 -1.36,-0.55 -1.36,-1.36l0 -10.17c0,-0.82 0.55,-1.36 1.36,-1.36l14.39 0 0 -37.78 -14.39 0c-0.81,0 -1.36,-0.55 -1.36,-1.36l0 -10.17c0,-0.81 0.55,-1.36 1.36,-1.36l43.46 0c0.81,0 1.36,0.55 1.36,1.36l0 10.17c0,0.82 -0.55,1.36 -1.36,1.36zm1247.93 -89.33c-10.34,0 -19.78,-2.54 -28.34,-7.66 -8.56,-5.12 -15.71,-12.03 -21.45,-20.67 -5.74,-8.64 -9.72,-18.27 -11.95,-28.87 -2.38,-11.31 -2.6,-22.09 -0.67,-32.43 1.92,-10.33 5.65,-19.51 11.17,-27.57 5.53,-8.02 12.42,-14.43 20.69,-19.2 8.26,-4.77 17.47,-7.13 27.63,-7.13 10.16,0 19.28,2.72 27.38,8.2 8.1,5.48 14.35,12.29 18.72,20.4l0.05 -26.46 29.67 0 -0.83 102.81c0.01,0.89 0.03,1.6 0.07,2.23 0.04,0.62 0.12,1.2 0.22,1.69 0.74,3.52 3.18,5.35 7.31,5.53l-0.06 25.12c-2.42,0.36 -4.58,0.67 -6.48,0.94 -1.91,0.27 -3.66,0.4 -5.26,0.4 -5.52,0 -10.03,-1.11 -13.54,-3.38 -3.51,-2.27 -5.7,-5.48 -6.58,-9.67 -0.18,-0.84 -0.35,-1.87 -0.51,-3.03 -0.15,-1.16 -0.26,-2.54 -0.3,-4.01 -0.05,-1.51 -0.01,-3.21 0.14,-5.03 -5.09,8.82 -11.9,15.64 -20.41,20.49 -8.51,4.86 -17.4,7.3 -26.66,7.3zm7.55 -25.12c3.56,0 7.2,-0.71 10.92,-2.09 3.71,-1.43 7.23,-3.34 10.54,-5.79 3.32,-2.45 6.23,-5.35 8.74,-8.64 2.51,-3.34 4.33,-6.95 5.49,-10.78l-0.14 -36.26c-1.89,-5.61 -4.83,-10.65 -8.8,-15.15 -3.96,-4.45 -8.42,-8.02 -13.33,-10.65 -4.92,-2.63 -9.87,-3.92 -14.85,-3.92 -6.77,0 -12.81,1.6 -18.09,4.85 -5.28,3.25 -9.62,7.62 -13.02,13.05 -3.39,5.48 -5.73,11.54 -7,18.17 -1.27,6.68 -1.18,13.46 0.26,20.32 1.48,7.04 4.08,13.27 7.81,18.71 3.73,5.43 8.31,9.84 13.73,13.18 5.43,3.34 11.34,4.99 17.76,4.99zm-158.35 -116.27l27.26 0 -0.42 31.05c4.76,-9.58 10.81,-17.24 18.13,-23.08 7.32,-5.83 15.17,-8.77 23.55,-8.77 1.78,0 3.22,0.04 4.3,0.13 1.09,0.09 2.01,0.22 2.75,0.4l-0.22 25.66c-10.47,0.18 -19.92,2.72 -28.32,7.66 -8.41,4.9 -14.43,11.85 -18.07,20.8l-0.33 84.86 -29.4 0 0.77 -138.72zm-63.88 0l29.4 0 -0.77 138.72 -29.4 0 0.77 -138.72zm-0.14 -55.33l29.4 0 0.12 32.34 -29.4 0 -0.12 -32.34zm-84.53 196.71c-11.76,0 -22.36,-2.54 -31.81,-7.66 -9.45,-5.12 -17.29,-12.11 -23.51,-20.94 -6.22,-8.82 -10.5,-18.8 -12.84,-29.94 -2.41,-11.45 -2.54,-22.27 -0.4,-32.43 2.13,-10.16 6.29,-19.2 12.47,-27.13 6.16,-7.97 13.99,-14.16 23.47,-18.66 9.48,-4.5 20.36,-6.77 32.65,-6.77 9.62,0 18.35,1.47 26.17,4.37 7.83,2.9 14.33,7.13 19.51,12.69 5.18,5.57 8.65,12.56 10.44,21.07 2.96,14.08 -1.23,24.85 -12.59,32.25 -11.35,7.44 -30.23,11.14 -56.6,11.14 -4.99,0 -10.63,-0.14 -16.92,-0.4 -6.29,-0.27 -13.43,-0.76 -21.43,-1.47l0.02 -18.98c7.2,0.36 13.61,0.71 19.2,1.07 5.6,0.36 10.81,0.53 15.62,0.53 12.65,0 22.42,-0.98 29.32,-2.9 6.9,-1.91 11.58,-4.68 14.04,-8.24 2.46,-3.56 3.2,-7.67 2.24,-12.21 -0.84,-4.01 -2.49,-7.22 -4.97,-9.67 -2.48,-2.45 -5.63,-4.32 -9.47,-5.66 -3.84,-1.29 -8.25,-1.96 -13.24,-1.96 -7.84,0 -14.7,1.69 -20.57,5.12 -5.87,3.43 -10.53,8.2 -13.98,14.26 -3.45,6.05 -5.66,12.87 -6.66,20.44 -0.99,7.57 -0.61,15.55 1.17,24.01 1.4,6.68 3.8,12.78 7.19,18.31 3.4,5.57 7.79,9.94 13.2,13.19 5.4,3.25 11.68,4.9 18.81,4.9 7.66,0 14.65,-1.91 20.97,-5.74 6.32,-3.83 10.84,-9.04 13.55,-15.64l24.77 7.22c-2.99,6.95 -7.48,13.14 -13.46,18.58 -5.99,5.43 -12.99,9.66 -20.99,12.69 -8,3.03 -16.46,4.54 -25.37,4.54zm-124.88 -141.39l29.4 0 -0.77 138.72 -29.4 0 0.77 -138.72zm-0.14 -55.33l29.4 0 0.12 32.34 -29.4 0 -0.12 -32.34zm-189.4 4.28l31.81 0 52.56 152.08 53.02 -152.08 31.81 0 -72.09 189.76 -25.66 0 -71.44 -189.76zm-130.65 51.05l27.26 0 -0.42 31.05c4.76,-9.58 10.81,-17.24 18.13,-23.08 7.32,-5.83 15.17,-8.77 23.55,-8.77 1.78,0 3.22,0.04 4.3,0.13 1.09,0.09 2.01,0.22 2.75,0.4l-0.22 25.66c-10.47,0.18 -19.92,2.72 -28.32,7.66 -8.41,4.9 -14.43,11.85 -18.07,20.8l-0.33 84.86 -29.4 0 0.77 -138.72zm-109.79 141.39c-10.34,0 -19.78,-2.54 -28.34,-7.66 -8.56,-5.12 -15.71,-12.03 -21.45,-20.67 -5.74,-8.64 -9.72,-18.27 -11.95,-28.87 -2.38,-11.31 -2.6,-22.09 -0.67,-32.43 1.92,-10.33 5.65,-19.51 11.17,-27.57 5.53,-8.02 12.42,-14.43 20.69,-19.2 8.26,-4.77 17.47,-7.13 27.63,-7.13 10.16,0 19.28,2.72 27.38,8.2 8.1,5.48 14.35,12.29 18.72,20.4l0.05 -26.46 29.67 0 -0.83 102.81c0.01,0.89 0.03,1.6 0.07,2.23 0.04,0.62 0.12,1.2 0.22,1.69 0.74,3.52 3.18,5.35 7.31,5.53l-0.06 25.12c-2.42,0.36 -4.58,0.67 -6.48,0.94 -1.91,0.27 -3.66,0.4 -5.26,0.4 -5.52,0 -10.03,-1.11 -13.54,-3.38 -3.51,-2.27 -5.7,-5.48 -6.58,-9.67 -0.18,-0.84 -0.35,-1.87 -0.51,-3.03 -0.15,-1.16 -0.26,-2.54 -0.3,-4.01 -0.05,-1.51 -0.01,-3.21 0.14,-5.03 -5.09,8.82 -11.9,15.64 -20.41,20.49 -8.51,4.86 -17.4,7.3 -26.66,7.3zm7.55 -25.12c3.56,0 7.2,-0.71 10.92,-2.09 3.71,-1.43 7.23,-3.34 10.54,-5.79 3.32,-2.45 6.23,-5.35 8.74,-8.64 2.51,-3.34 4.33,-6.95 5.49,-10.78l-0.14 -36.26c-1.89,-5.61 -4.83,-10.65 -8.8,-15.15 -3.96,-4.45 -8.42,-8.02 -13.33,-10.65 -4.92,-2.63 -9.87,-3.92 -14.85,-3.92 -6.77,0 -12.81,1.6 -18.09,4.85 -5.28,3.25 -9.62,7.62 -13.02,13.05 -3.39,5.48 -5.73,11.54 -7,18.17 -1.27,6.68 -1.18,13.46 0.26,20.32 1.48,7.04 4.08,13.27 7.81,18.71 3.73,5.43 8.31,9.84 13.73,13.18 5.43,3.34 11.34,4.99 17.76,4.99zm-140.65 25.12c-11.23,0 -22.11,-1.78 -32.66,-5.34 -10.55,-3.56 -19.67,-8.82 -27.37,-15.77l11.84 -18.71c7.65,5.88 15.41,10.34 23.26,13.36 7.85,3.03 15.7,4.55 23.54,4.55 6.06,0 11.18,-0.89 15.35,-2.63 4.18,-1.73 7.19,-4.18 9.02,-7.35 1.83,-3.12 2.31,-6.82 1.43,-11 -1.15,-5.48 -4.28,-9.36 -9.4,-11.67 -5.11,-2.27 -12.68,-4.77 -22.67,-7.39 -9.68,-2.81 -17.72,-5.48 -24.11,-7.93 -6.41,-2.49 -11.37,-5.57 -14.91,-9.27 -3.55,-3.74 -5.97,-8.69 -7.26,-14.83 -2.04,-9.71 -1.14,-18.31 2.75,-25.7 3.88,-7.39 10,-13.23 18.38,-17.46 8.38,-4.23 18.35,-6.37 29.94,-6.37 10.51,0 20.07,1.6 28.67,4.81 8.6,3.21 16.3,7.84 23.1,13.9l-12.59 17.64c-6.08,-5.17 -12.07,-8.91 -17.99,-11.23 -5.92,-2.32 -12.27,-3.48 -19.04,-3.48 -5.88,0 -10.92,0.8 -15.14,2.36 -4.21,1.61 -7.27,3.96 -9.19,7.13 -1.92,3.16 -2.39,7.04 -1.44,11.58 1,4.77 3.5,8.15 7.51,10.29 4,2.09 10.81,4.37 20.42,6.86 10.17,2.63 18.87,5.43 26.1,8.46 7.23,2.98 12.92,6.59 17.11,10.82 4.2,4.28 7.01,9.8 8.46,16.7 1.89,9 1.01,17.11 -2.63,24.37 -3.65,7.22 -9.76,12.92 -18.33,17.06 -8.57,4.15 -19.27,6.24 -32.1,6.24zm-133.37 0c-11.76,0 -22.36,-2.54 -31.81,-7.66 -9.45,-5.12 -17.29,-12.11 -23.51,-20.94 -6.22,-8.82 -10.5,-18.8 -12.84,-29.94 -2.41,-11.45 -2.54,-22.27 -0.4,-32.43 2.13,-10.16 6.29,-19.2 12.47,-27.13 6.16,-7.97 13.99,-14.16 23.47,-18.66 9.48,-4.5 20.36,-6.77 32.65,-6.77 9.62,0 18.35,1.47 26.17,4.37 7.83,2.9 14.33,7.13 19.51,12.69 5.18,5.57 8.65,12.56 10.44,21.07 2.96,14.08 -1.23,24.85 -12.59,32.25 -11.35,7.44 -30.23,11.14 -56.6,11.14 -4.99,0 -10.63,-0.14 -16.92,-0.4 -6.29,-0.27 -13.43,-0.76 -21.43,-1.47l0.02 -18.98c7.2,0.36 13.61,0.71 19.2,1.07 5.6,0.36 10.81,0.53 15.62,0.53 12.65,0 22.42,-0.98 29.32,-2.9 6.9,-1.91 11.58,-4.68 14.04,-8.24 2.46,-3.56 3.2,-7.67 2.24,-12.21 -0.84,-4.01 -2.49,-7.22 -4.97,-9.67 -2.48,-2.45 -5.63,-4.32 -9.47,-5.66 -3.84,-1.29 -8.25,-1.96 -13.24,-1.96 -7.84,0 -14.7,1.69 -20.57,5.12 -5.87,3.43 -10.53,8.2 -13.98,14.26 -3.45,6.05 -5.66,12.87 -6.66,20.44 -0.99,7.57 -0.61,15.55 1.17,24.01 1.4,6.68 3.8,12.78 7.19,18.31 3.4,5.57 7.79,9.94 13.2,13.19 5.4,3.25 11.68,4.9 18.81,4.9 7.66,0 14.65,-1.91 20.97,-5.74 6.32,-3.83 10.84,-9.04 13.55,-15.64l24.77 7.22c-2.99,6.95 -7.48,13.14 -13.46,18.58 -5.99,5.43 -12.99,9.66 -20.99,12.69 -8,3.03 -16.46,4.54 -25.37,4.54zm-156.1 -1.33c-11.41,0 -21.9,-2.23 -31.48,-6.68 -9.58,-4.45 -18.1,-10.47 -25.57,-18.04 -7.47,-7.57 -13.67,-16.08 -18.59,-25.52 -4.93,-9.45 -8.44,-19.15 -10.54,-29.13 -2.25,-10.69 -2.8,-21.38 -1.66,-32.07 1.14,-10.69 3.79,-20.94 7.97,-30.74 4.18,-9.8 9.89,-18.44 17.13,-25.93 7.24,-7.48 15.98,-13.41 26.2,-17.77 10.22,-4.37 21.74,-6.55 34.57,-6.55 17.46,0 32.18,3.92 44.17,11.76 11.98,7.84 20.83,17.73 26.55,29.67l-22.19 15.23c-3.82,-8.02 -8.32,-14.16 -13.5,-18.44 -5.17,-4.28 -10.65,-7.22 -16.42,-8.82 -5.77,-1.6 -11.69,-2.4 -17.75,-2.4 -12.29,0 -22.41,2.54 -30.34,7.62 -7.93,5.08 -14.05,11.76 -18.37,20.04 -4.32,8.29 -6.92,17.28 -7.82,27 -0.9,9.71 -0.38,19.2 1.57,28.47 2.1,9.98 5.73,19.2 10.9,27.66 5.16,8.47 11.61,15.19 19.34,20.18 7.73,4.99 16.41,7.48 26.03,7.48 5.88,0 11.79,-1.11 17.74,-3.34 5.95,-2.23 11.47,-5.61 16.58,-10.16 5.1,-4.55 9.11,-10.47 12.03,-17.78l24.89 14.17c-4,9.8 -9.85,17.99 -17.55,24.59 -7.7,6.59 -16.25,11.49 -25.64,14.7 -9.39,3.21 -18.81,4.81 -28.25,4.81zm1270.71 79.24c27.32,-18.19 54.02,-37.86 79.38,-58.59 -25.77,21.22 -52.17,40.99 -79.28,58.64 5.63,2.54 8.98,7.33 9.74,14.92 0.09,0.91 -0.45,1.64 -1.27,1.64l-10.13 0c-0.82,0 -1.14,-0.64 -1.36,-1.36 -0.86,-2.63 -3.72,-4.4 -9.63,-4.4 -5.4,0 -8.13,2.36 -8.13,5.72 0,2.72 -0.18,5.54 7.9,7.08 11.94,2.23 24.52,6.4 24.52,20.34 0,13.57 -8.17,19.48 -24.2,19.48 -14.94,0 -22.3,-5.09 -23.43,-17.8 -0.09,-0.91 0.46,-1.5 1.27,-1.5l10.94 0c0.81,0 1.14,0.5 1.36,1.23 1.18,3.27 4.09,4.86 9.86,4.86 6.08,0 9.86,-1.72 9.86,-5.77 0,-4.22 -1.36,-6.49 -10.17,-8.22 -11.26,-2.23 -22.16,-6.9 -22.16,-19.7 0,-11.72 7.13,-18.8 22.16,-18.8 5.05,0 9.34,0.7 12.78,2.24zm-1172.72 -1.47c0.81,0 1.36,0.55 1.36,1.36l0 60.84c0,0.81 -0.55,1.36 -1.36,1.36l-13.44 0c-0.73,0 -1.27,-0.27 -1.64,-0.91l-21.65 -38.91 0 38.46c0,0.81 -0.55,1.36 -1.36,1.36l-11.94 0c-0.81,0 -1.36,-0.55 -1.36,-1.36l0 -60.84c0,-0.81 0.55,-1.36 1.36,-1.36l13.39 0c0.73,0 1.27,0.27 1.64,0.91l21.65 38.86 0 -38.41c0,-0.81 0.55,-1.36 1.36,-1.36l11.99 0zm49.79 64.74c-17.98,0 -32.73,-14.53 -32.73,-32.69 0,-18.25 14.76,-32.78 32.73,-32.78 18.03,0 32.83,14.53 32.83,32.78 0,18.16 -14.8,32.69 -32.83,32.69zm0 -14.21c10.13,0 18.08,-8.12 18.08,-18.48 0,-10.45 -7.95,-18.57 -18.08,-18.57 -10.03,0 -17.98,8.12 -17.98,18.57 0,10.35 7.95,18.48 17.98,18.48zm87.98 -49.44c0.27,-0.82 0.81,-1.09 1.54,-1.09l12.44 0c1,0 1.4,0.63 1.09,1.54l-22.25 60.93c-0.27,0.73 -1.04,1.09 -1.77,1.09l-10.9 0c-0.73,0 -1.27,-0.36 -1.55,-1.09l-22.24 -60.93c-0.32,-0.91 0.09,-1.54 1.09,-1.54l12.44 0c0.72,0 1.32,0.27 1.54,1.09l14.31 43.18 14.25 -43.18zm82.94 60.93c0.32,0.91 -0.09,1.54 -1.09,1.54l-12.44 0c-0.72,0 -1.27,-0.27 -1.54,-1.09l-2.91 -8.81 -22.75 0 -2.91 8.81c-0.23,0.82 -0.82,1.09 -1.54,1.09l-12.44 0c-1,0 -1.4,-0.64 -1.09,-1.54l22.25 -60.93c0.27,-0.73 0.82,-1.09 1.54,-1.09l10.9 0c0.73,0 1.5,0.36 1.77,1.09l22.26 60.93zm-36.6 -20.75l14.53 0 -7.26 -21.98 -7.26 21.98zm96.2 4.22l7.36 7.95c0.55,0.64 0.68,1.27 0.04,1.91 -5.27,5.36 -12.8,8.99 -21.11,9.35l-2.04 1.77c4.13,0.32 8.4,2.86 8.4,7.63 0,8.31 -8.49,10.71 -16.8,9.35 -0.55,-0.09 -0.81,-0.45 -0.81,-1l0 -4.86c0,-0.55 0.36,-1 1,-0.91 4.86,0.73 7.36,-0.32 7.36,-2 0,-1.32 -3.13,-3 -7.26,-1.18 -0.64,0.27 -1.09,0 -1.09,-0.64l0 -5.17c0,-0.45 0.18,-0.86 0.45,-1.09l2.82 -2.5c-15.07,-2.99 -26.38,-16.03 -26.38,-32.05 0,-18.39 14.76,-32.78 32.96,-32.78 8.86,0 16.98,3.63 22.53,9.4 0.64,0.68 0.5,1.27 -0.04,1.91l-7.36 7.95c-0.5,0.64 -1.27,0.64 -1.91,0.09 -3.5,-3 -7.9,-4.95 -13.35,-4.95 -9.9,0 -17.66,7.9 -17.66,18.39 0,10.4 7.76,18.3 17.66,18.3 5.45,0 9.85,-1.95 13.35,-4.95 0.64,-0.55 1.41,-0.55 1.91,0.09l0 -0.01zm31.31 -55.39c-0.55,0 -1,-0.5 -0.95,-1.23 0.82,-6.76 5.09,-9.8 10.45,-9.8 7.4,0 10.03,6.4 15.44,6.4 2.36,0 3.67,-1.18 4.26,-2.45 0.18,-0.41 0.45,-0.68 1,-0.68l3.18 0c0.55,0 0.86,0.36 0.91,0.91 0.23,6.95 -4.99,10.13 -10.44,10.13 -7.4,0 -9.99,-6.4 -15.44,-6.4 -2.31,0 -3.63,1.18 -4.22,2.45 -0.18,0.41 -0.45,0.68 -1,0.68l-3.18 0zm46.04 71.92c0.32,0.91 -0.09,1.54 -1.09,1.54l-12.44 0c-0.72,0 -1.27,-0.27 -1.54,-1.09l-2.91 -8.81 -22.75 0 -2.91 8.81c-0.23,0.82 -0.82,1.09 -1.54,1.09l-12.44 0c-1,0 -1.4,-0.64 -1.09,-1.54l22.25 -60.93c0.27,-0.73 0.82,-1.09 1.54,-1.09l10.9 0c0.73,0 1.5,0.36 1.77,1.09l22.26 60.93zm-36.6 -20.75l14.53 0 -7.26 -21.98 -7.26 21.98zm80.85 23.47c-17.98,0 -32.73,-14.53 -32.73,-32.69 0,-18.25 14.76,-32.78 32.73,-32.78 18.02,0 32.83,14.53 32.83,32.78 0,18.16 -14.8,32.69 -32.83,32.69zm0 -14.21c10.13,0 18.07,-8.12 18.07,-18.48 0,-10.45 -7.95,-18.57 -18.07,-18.57 -10.03,0 -17.98,8.12 -17.98,18.57 0,10.35 7.95,18.48 17.98,18.48zm127.19 0.14c0.82,0 1.36,0.55 1.36,1.36l0 10.17c0,0.81 -0.55,1.36 -1.36,1.36l-39.82 0c-0.81,0 -1.36,-0.55 -1.36,-1.36l0 -60.84c0,-0.81 0.55,-1.36 1.36,-1.36l39.73 0c0.82,0 1.36,0.55 1.36,1.36l0 10.17c0,0.82 -0.55,1.36 -1.36,1.36l-26.42 0 0 12.21 24.2 0c0.82,0 1.36,0.55 1.36,1.36l0 10.17c0,0.81 -0.55,1.36 -1.36,1.36l-24.2 0 0 12.66 26.52 0 0 0zm83.3 -50.67c0.82,0 1.36,0.55 1.36,1.36l0 60.84c0,0.81 -0.55,1.36 -1.36,1.36l-11.94 0c-0.82,0 -1.36,-0.55 -1.36,-1.36l0 -30.15 -11.99 30.38c-0.27,0.73 -0.91,1.14 -1.63,1.14l-10.71 0c-0.73,0 -1.41,-0.41 -1.68,-1.14l-12.03 -30.51 0 30.29c0,0.81 -0.55,1.36 -1.36,1.36l-11.94 0c-0.82,0 -1.36,-0.55 -1.36,-1.36l0 -60.84c0,-0.81 0.55,-1.36 1.36,-1.36l13.39 0c0.73,0 1.36,0.27 1.63,0.91l17.35 45.68 17.3 -45.68c0.27,-0.64 0.91,-0.91 1.63,-0.91l13.35 0zm76.75 25.1c11.94,2.23 24.51,6.4 24.51,20.34 0,13.57 -8.17,19.48 -24.2,19.48 -14.93,0 -22.29,-5.09 -23.43,-17.8 -0.09,-0.91 0.45,-1.5 1.27,-1.5l10.94 0c0.82,0 1.14,0.5 1.36,1.23 1.18,3.27 4.08,4.86 9.85,4.86 6.09,0 9.86,-1.72 9.86,-5.77 0,-4.22 -1.36,-6.49 -10.17,-8.22 -11.26,-2.23 -22.16,-6.9 -22.16,-19.7 0,-11.72 7.13,-18.8 22.16,-18.8 13.39,0 21.39,4.95 22.61,17.21 0.09,0.91 -0.45,1.64 -1.27,1.64l-10.13 0c-0.82,0 -1.14,-0.64 -1.36,-1.36 -0.86,-2.63 -3.72,-4.4 -9.63,-4.4 -5.4,0 -8.12,2.36 -8.12,5.72 0,2.72 -0.18,5.54 7.9,7.08zm70.22 39.64c-17.98,0 -32.73,-14.53 -32.73,-32.69 0,-18.25 14.76,-32.78 32.73,-32.78 18.02,0 32.83,14.53 32.83,32.78 0,18.16 -14.8,32.69 -32.83,32.69zm0 -14.21c10.13,0 18.07,-8.12 18.07,-18.48 0,-10.45 -7.95,-18.57 -18.07,-18.57 -10.03,0 -17.98,8.12 -17.98,18.57 0,10.35 7.95,18.48 17.98,18.48zm89.25 0.14c0.82,0 1.36,0.55 1.36,1.36l0 10.17c0,0.81 -0.55,1.36 -1.36,1.36l-39.37 0c-0.82,0 -1.36,-0.55 -1.36,-1.36l0 -60.84c0,-0.81 0.55,-1.36 1.36,-1.36l11.94 0c0.82,0 1.36,0.55 1.36,1.36l0 49.31 26.06 0zm66.68 -50.67c0.81,0 1.36,0.55 1.36,1.36l0 36.46c0,18.57 -11.26,27.06 -26.97,27.06 -15.62,0 -26.97,-8.49 -26.97,-27.06l0 -36.46c0,-0.81 0.55,-1.36 1.36,-1.36l11.94 0c0.82,0 1.36,0.55 1.36,1.36l0 36.46c0,7.95 4.63,12.94 12.3,12.94 7.76,0 12.26,-4.99 12.26,-12.94l0 -36.46c0,-0.81 0.55,-1.36 1.36,-1.36l11.99 0zm63.55 45.49l7.36 7.95c0.55,0.64 0.68,1.27 0.04,1.91 -5.27,5.36 -12.8,8.99 -21.11,9.35l-2.04 1.77c4.13,0.32 8.4,2.86 8.4,7.63 0,8.31 -8.49,10.71 -16.8,9.35 -0.55,-0.09 -0.82,-0.45 -0.82,-1l0 -4.86c0,-0.55 0.36,-1 1,-0.91 4.86,0.73 7.36,-0.32 7.36,-2 0,-1.32 -3.13,-3 -7.26,-1.18 -0.64,0.27 -1.09,0 -1.09,-0.64l0 -5.17c0,-0.45 0.18,-0.86 0.45,-1.09l2.82 -2.5c-15.07,-2.99 -26.38,-16.03 -26.38,-32.05 0,-18.39 14.76,-32.78 32.96,-32.78 8.85,0 16.98,3.63 22.52,9.4 0.64,0.68 0.5,1.27 -0.04,1.91l-7.36 7.95c-0.5,0.64 -1.27,0.64 -1.91,0.09 -3.49,-3 -7.9,-4.95 -13.35,-4.95 -9.9,0 -17.66,7.9 -17.66,18.39 0,10.4 7.76,18.3 17.66,18.3 5.45,0 9.85,-1.95 13.35,-4.95 0.64,-0.55 1.41,-0.55 1.91,0.09l0 -0.01zm46.56 -66.42c7.4,0 10.03,6.4 15.44,6.4 2.36,0 3.67,-1.18 4.26,-2.45 0.18,-0.41 0.46,-0.68 1,-0.68l3.18 0c0.55,0 0.86,0.36 0.91,0.91 0.23,6.95 -4.99,10.13 -10.44,10.13 -7.4,0 -9.99,-6.4 -15.44,-6.4 -2.31,0 -3.63,1.18 -4.22,2.45 -0.18,0.41 -0.46,0.68 -1,0.68l-3.18 0c-0.55,0 -1,-0.5 -0.95,-1.23 0.81,-6.76 5.09,-9.8 10.44,-9.8zm7.18 85.67c-17.98,0 -32.74,-14.53 -32.74,-32.69 0,-18.25 14.76,-32.78 32.74,-32.78 18.02,0 32.83,14.53 32.83,32.78 0,18.16 -14.8,32.69 -32.83,32.69zm0 -14.21c10.13,0 18.07,-8.12 18.07,-18.48 0,-10.45 -7.95,-18.57 -18.07,-18.57 -10.04,0 -17.98,8.12 -17.98,18.57 0,10.35 7.95,18.48 17.98,18.48zm89.7 0.14c0.81,0 1.36,0.55 1.36,1.36l0 10.17c0,0.81 -0.55,1.36 -1.36,1.36l-39.82 0c-0.82,0 -1.36,-0.55 -1.36,-1.36l0 -60.84c0,-0.81 0.55,-1.36 1.36,-1.36l39.73 0c0.81,0 1.36,0.55 1.36,1.36l0 10.17c0,0.82 -0.55,1.36 -1.36,1.36l-26.43 0 0 12.21 24.21 0c0.81,0 1.36,0.55 1.36,1.36l0 10.17c0,0.81 -0.55,1.36 -1.36,1.36l-24.21 0 0 12.66 26.52 0 0 0zm-1651.55 31.19c-10.18,-16.59 -20.92,-32.98 -29.16,-50.52 -7.85,-16.71 -20.11,-19.54 -35.62,-19.29 -13.88,0.18 -15.89,2.83 -9.11,14.64 13.26,23.19 27.4,45.87 40.53,69.05 -3.77,5.4 -5.97,12 -5.97,19.04 0,18.47 15.02,33.49 33.49,33.49 18.47,0 33.49,-15.01 33.49,-33.49 0,-16.4 -12,-30.09 -27.64,-32.92zm-5.84 50.52c-9.68,0 -17.53,-7.85 -17.53,-17.53 0,-1.25 0.13,-2.51 0.38,-3.71 1.7,-7.92 8.73,-13.89 17.15,-13.89 7.48,0 13.89,4.71 16.4,11.31 0.69,1.95 1.13,4.02 1.13,6.22 0,9.74 -7.85,17.59 -17.53,17.59zm196.28 -132.95c-10.75,0 -20.36,5.15 -26.52,13.07 -19.79,0.44 -39.58,1.51 -59.18,-0.25 -18.41,-1.63 -27.02,7.54 -34.62,21.05 -6.79,12.13 -5.59,15.14 8.11,15.21 27.52,0.19 55.04,-0.63 82.56,-0.25 5.59,10.68 16.77,18.03 29.65,18.03 18.47,0 33.49,-15.02 33.49,-33.49 0,-18.35 -15.02,-33.37 -33.49,-33.37zm0 50.96c-4.33,0 -8.29,-1.57 -11.37,-4.21 -3.77,-3.2 -6.16,-7.98 -6.16,-13.32 0,-9.68 7.85,-17.53 17.53,-17.53l0.07 0c9.67,0 17.53,7.85 17.53,17.53 -0.06,9.68 -7.92,17.53 -17.59,17.53zm27.33 -259.74c-18.47,0 -33.49,15.02 -33.49,33.49 0,3.83 0.63,7.48 1.82,10.87 -9.8,17.59 -18.97,35.56 -30.47,51.9 -10.68,15.08 -7.1,27.15 0.76,40.53 7.04,12 10.3,12.44 17.21,0.69 13.89,-23.44 26.89,-47.37 40.91,-70.68 1.07,0.12 2.13,0.12 3.2,0.12 18.47,0 33.49,-15.01 33.49,-33.49 0,-18.47 -14.96,-33.43 -33.42,-33.43zm4.46 50.39c-1.44,0.38 -2.89,0.57 -4.46,0.57 -9.68,0 -17.53,-7.85 -17.53,-17.53 0,-3.64 1.13,-7.04 3.08,-9.87 3.14,-4.65 8.48,-7.67 14.46,-7.67 9.67,0 17.53,7.85 17.53,17.53 0,8.17 -5.53,15.01 -13.07,16.96zm-104.61 -56.04c-13,-23.37 -26.89,-46.25 -39.77,-69.68 3.96,-5.47 6.22,-12.19 6.22,-19.41 0,-18.47 -15.01,-33.49 -33.49,-33.49 -18.47,0 -33.49,15.01 -33.49,33.49 0,16.28 11.69,29.91 27.15,32.86 10.05,16.84 20.61,33.36 28.65,51.08 7.67,16.84 19.85,19.79 35.44,19.73 13.95,-0.06 15.96,-2.64 9.3,-14.57zm-49.95 -85.08c-1.83,7.73 -8.8,13.51 -17.09,13.51 -7.48,0 -13.95,-4.77 -16.4,-11.37 -0.69,-1.89 -1.13,-3.96 -1.13,-6.16 0,-9.67 7.85,-17.53 17.53,-17.53 9.68,0 17.53,7.85 17.53,17.53 0.06,1.39 -0.13,2.71 -0.44,4.02zm-182.02 184.85c-7.16,-11.88 -10.43,-12.31 -17.22,-0.44 -13.95,24.19 -26.95,48.88 -41.09,72.95 -0.25,0.44 -0.5,0.88 -0.76,1.25 -17.97,0.51 -32.48,15.33 -32.48,33.43 0,18.47 15.02,33.49 33.49,33.49 18.47,0 33.49,-15.02 33.49,-33.49 0,-5.4 -1.32,-10.56 -3.58,-15.08 9.43,-17.46 18.28,-35.31 29.53,-51.58 10.37,-15.21 6.6,-27.21 -1.38,-40.53zm-41.47 112.72c-2.32,6.97 -8.92,12.06 -16.65,12.06 -9.68,0 -17.53,-7.85 -17.53,-17.53 0,-7.23 4.4,-13.51 10.68,-16.15 2.07,-0.88 4.4,-1.38 6.85,-1.38 9.68,0 17.53,7.85 17.53,17.53 0,1.88 -0.32,3.71 -0.88,5.47zm118.18 -234.73c-25.89,0.13 -51.77,1.13 -77.66,1.19 -5.78,-9.87 -16.59,-16.52 -28.84,-16.52 -18.47,0 -33.49,15.02 -33.49,33.49 0,18.47 15.01,33.49 33.49,33.49 11.56,0 21.74,-5.84 27.77,-14.76 17.59,-0.69 35.25,-1.57 52.72,-0.25 18.41,1.38 26.89,-7.85 34.37,-21.49 6.59,-12.25 5.34,-15.21 -8.36,-15.14zm-106.5 35.69c-1.63,0 -3.27,-0.25 -4.77,-0.63 -7.35,-2.07 -12.75,-8.86 -12.75,-16.9 0,-9.68 7.85,-17.53 17.53,-17.53 2.89,0 5.65,0.69 8.11,1.95 5.59,2.95 9.42,8.8 9.42,15.58 0,9.67 -7.85,17.53 -17.53,17.53zm32.17 -88.21c3.08,-11.63 12.63,-14.89 26.01,-14.58 22.93,0.5 45.93,-0.63 68.86,-1.44 8.48,-0.32 14.27,2.26 18.78,9.93 22.75,38.32 45.8,76.46 69.05,114.54 5.22,8.61 3.58,10.43 -6.47,12.07 -21.8,3.45 -34.62,-4.33 -44.42,-24.19 -11.5,-23.31 -26.83,-44.74 -40.03,-67.29 -3.71,-6.35 -8.11,-8.42 -15.26,-8.17 -23.88,0.88 -47.69,1.32 -71.57,1.5 -16.08,0.13 -16.58,-1.06 -8.67,-15.64 0.88,-1.63 1.76,-3.2 3.71,-6.72zm-102.41 211.87c-8.48,-8.55 -6.53,-18.41 0.5,-29.85 12,-19.54 22.62,-39.96 33.43,-60.25 4.02,-7.48 9.11,-11.18 18.03,-11.24 44.54,-0.32 89.15,-1.07 133.7,-1.95 10.05,-0.19 10.81,2.13 7.17,11.62 -7.98,20.61 -21.11,27.71 -43.23,26.2 -25.95,-1.83 -52.21,0.62 -78.29,0.69 -7.35,0 -11.37,2.83 -14.71,9.11 -11.24,21.05 -22.87,41.91 -34.74,62.58 -7.98,13.94 -9.24,13.76 -17.9,-0.38 -1.01,-1.51 -1.95,-3.08 -3.96,-6.53zm131.5 195.21c-11.62,3.02 -19.16,-3.64 -25.51,-15.45 -10.87,-20.17 -23.19,-39.65 -35.18,-59.19 -4.46,-7.23 -5.03,-13.51 -0.63,-21.24 22.12,-38.7 43.92,-77.6 65.6,-116.55 4.9,-8.8 7.29,-8.29 13.63,-0.31 13.76,17.28 13.32,32.23 0.88,50.58 -14.64,21.55 -25.7,45.43 -38.83,67.98 -3.71,6.41 -3.27,11.25 0.44,17.28 12.5,20.3 24.63,40.84 36.63,61.51 8.04,13.95 7.29,14.96 -9.36,15.27 -1.88,0.06 -3.71,0.06 -7.67,0.12zm234.8 -15.39c-3.21,11.56 -12.82,14.76 -26.2,14.26 -22.93,-0.75 -45.93,0.06 -68.86,0.63 -8.48,0.19 -14.2,-2.45 -18.66,-10.12 -22.31,-38.58 -44.92,-77.03 -67.67,-115.35 -5.15,-8.67 -3.45,-10.49 6.6,-11.94 21.87,-3.21 34.56,4.71 44.11,24.69 11.25,23.5 26.33,45.11 39.21,67.8 3.64,6.41 8.04,8.48 15.2,8.29 23.88,-0.57 47.75,-0.76 71.57,-0.63 16.08,0.06 16.52,1.25 8.48,15.77 -0.88,1.57 -1.76,3.14 -3.77,6.6zm104.99 -210.61c8.36,8.61 6.28,18.47 -0.88,29.84 -12.19,19.41 -23.06,39.71 -34.12,59.81 -4.08,7.41 -9.3,11.06 -18.16,11.06 -44.55,-0.19 -89.15,0 -133.7,0.37 -10.05,0.06 -10.81,-2.26 -7.04,-11.75 8.23,-20.48 21.49,-27.46 43.54,-25.7 25.95,2.14 52.21,-0.06 78.29,0.25 7.35,0.06 11.37,-2.64 14.82,-8.92 11.5,-20.92 23.37,-41.6 35.5,-62.2 8.17,-13.89 9.42,-13.7 17.9,0.63 0.95,1.57 1.83,3.08 3.84,6.6zm-129.18 -196.79c11.69,-2.89 19.1,3.84 25.39,15.77 10.62,20.3 22.68,39.9 34.49,59.63 4.4,7.29 4.9,13.57 0.38,21.24 -22.62,38.45 -44.86,77.03 -66.98,115.74 -4.96,8.73 -7.41,8.17 -13.63,0.18 -13.57,-17.4 -12.95,-32.36 -0.26,-50.58 14.89,-21.36 26.27,-45.11 39.65,-67.54 3.77,-6.35 3.39,-11.19 -0.25,-17.28 -12.25,-20.48 -24.19,-41.16 -35.88,-61.95 -7.85,-14.01 -7.1,-15.01 9.55,-15.14 1.69,-0.07 3.52,-0.07 7.54,-0.07z"/>
 </g>
</svg>
